<mxfile host="app.diagrams.net" agent="Mozilla/5.0 (Windows NT 10.0; Win64; x64) AppleWebKit/537.36 (KHTML, like Gecko) Chrome/131.0.0.0 Safari/537.36" version="25.0.1">
  <diagram name="Página-1" id="wmexFkZFV4C5G2_LSLB-">
    <mxGraphModel dx="3528" dy="1915" grid="1" gridSize="10" guides="1" tooltips="1" connect="1" arrows="1" fold="1" page="1" pageScale="1" pageWidth="827" pageHeight="1169" background="#ffffff" math="0" shadow="0">
      <root>
        <mxCell id="0" />
        <mxCell id="1" parent="0" />
        <mxCell id="01Oeq3N-594YPHe-8Gk3-41" style="edgeStyle=orthogonalEdgeStyle;rounded=0;orthogonalLoop=1;jettySize=auto;html=1;exitX=0.25;exitY=1;exitDx=0;exitDy=0;entryX=0.25;entryY=0;entryDx=0;entryDy=0;" edge="1" parent="1" source="24jAjjag3Yym39tfX2p5-30" target="dAuswY9n_uoiKKatBOaa-29">
          <mxGeometry relative="1" as="geometry">
            <Array as="points">
              <mxPoint x="-936" y="-539" />
            </Array>
          </mxGeometry>
        </mxCell>
        <mxCell id="24jAjjag3Yym39tfX2p5-30" value="Contratos" style="swimlane;whiteSpace=wrap;html=1;fillColor=#f5f5f5;fontColor=#333333;strokeColor=#666666;" parent="1" vertex="1">
          <mxGeometry x="-997" y="-729" width="270" height="190" as="geometry">
            <mxRectangle x="290" y="50" width="90" height="30" as="alternateBounds" />
          </mxGeometry>
        </mxCell>
        <mxCell id="24jAjjag3Yym39tfX2p5-31" value="&lt;span style=&quot;text-align: justify;&quot;&gt;idContrato:&amp;nbsp;&lt;/span&gt;INTEGER" style="whiteSpace=wrap;html=1;align=left;" parent="24jAjjag3Yym39tfX2p5-30" vertex="1">
          <mxGeometry x="40" y="23" width="230" height="27" as="geometry" />
        </mxCell>
        <mxCell id="dAuswY9n_uoiKKatBOaa-8" value="&lt;div style=&quot;text-align: left;&quot;&gt;&lt;span style=&quot;background-color: initial;&quot;&gt;PK&lt;/span&gt;&lt;/div&gt;" style="rounded=0;whiteSpace=wrap;html=1;" parent="24jAjjag3Yym39tfX2p5-30" vertex="1">
          <mxGeometry y="23" width="40" height="27" as="geometry" />
        </mxCell>
        <mxCell id="dAuswY9n_uoiKKatBOaa-12" value="&lt;div style=&quot;text-align: justify;&quot;&gt;&lt;span style=&quot;background-color: initial;&quot;&gt;objetoContrato: STRING&lt;/span&gt;&lt;/div&gt;&lt;div style=&quot;text-align: justify;&quot;&gt;dataPublicacao: DATE&lt;/div&gt;&lt;div style=&quot;text-align: justify;&quot;&gt;dataCelebracaoContrato:&amp;nbsp;&amp;nbsp;&lt;span style=&quot;background-color: initial;&quot;&gt;DATE&lt;/span&gt;&lt;/div&gt;&lt;div style=&quot;text-align: justify;&quot;&gt;precoContratual: REAL&lt;/div&gt;&lt;div style=&quot;text-align: justify;&quot;&gt;procedimentoCentralizado: BOOLEAN&lt;span style=&quot;background-color: initial; color: rgba(0, 0, 0, 0); font-family: monospace; font-size: 0px; text-align: left; text-wrap-mode: nowrap;&quot;&gt;%3CmxGraphModel%3E%3Croot%3E%3CmxCell%20id%3D%220%22%2F%3E%3CmxCell%20id%3D%221%22%20parent%3D%220%22%2F%3E%3CmxCell%20id%3D%222%22%20value%3D%22Contrato%22%20style%3D%22swimlane%3BwhiteSpace%3Dwrap%3Bhtml%3D1%3B%22%20vertex%3D%221%22%20parent%3D%221%22%3E%3CmxGeometry%20x%3D%22290%22%20y%3D%2250%22%20width%3D%22200%22%20height%3D%22200%22%20as%3D%22geometry%22%3E%3CmxRectangle%20x%3D%22290%22%20y%3D%2250%22%20width%3D%2290%22%20height%3D%2230%22%20as%3D%22alternateBounds%22%2F%3E%3C%2FmxGeometry%3E%3C%2FmxCell%3E%3CmxCell%20id%3D%223%22%20value%3D%22%26lt%3Bdiv%20style%3D%26quot%3Btext-align%3A%20justify%3B%26quot%3B%26gt%3BidContrato%26lt%3B%2Fdiv%26gt%3B%26lt%3Bdiv%20style%3D%26quot%3Btext-align%3A%20justify%3B%26quot%3B%26gt%3BtipoContrato%26lt%3B%2Fdiv%26gt%3B%26lt%3Bdiv%20style%3D%26quot%3Btext-align%3A%20justify%3B%26quot%3B%26gt%3BdataPublicacao%26lt%3B%2Fdiv%26gt%3B%26lt%3Bdiv%20style%3D%26quot%3Btext-align%3A%20justify%3B%26quot%3B%26gt%3BprecoContratual%26lt%3B%2Fdiv%26gt%3B%26lt%3Bdiv%20style%3D%26quot%3Btext-align%3A%20justify%3B%26quot%3B%26gt%3Bcpv%26lt%3B%2Fdiv%26gt%3B%26lt%3Bdiv%20style%3D%26quot%3Btext-align%3A%20justify%3B%26quot%3B%26gt%3BprocedimentoCentralizado%26lt%3B%2Fdiv%26gt%3B%26lt%3Bdiv%20style%3D%26quot%3Btext-align%3A%20justify%3B%26quot%3B%26gt%3BdescrAcordoQuadro%26lt%3B%2Fdiv%26gt%3B%26lt%3Bdiv%20style%3D%26quot%3Btext-align%3A%20justify%3B%26quot%3B%26gt%3Bfundamentacao%26lt%3B%2Fdiv%26gt%3B%22%20style%3D%22whiteSpace%3Dwrap%3Bhtml%3D1%3Balign%3Dleft%3B%22%20vertex%3D%221%22%20parent%3D%222%22%3E%3CmxGeometry%20y%3D%2223%22%20width%3D%22200%22%20height%3D%22177%22%20as%3D%22geometry%22%2F%3E%3C%2FmxCell%3E%3C%2Froot%3E%3C%2FmxG&lt;/span&gt;&lt;/div&gt;&lt;div style=&quot;text-align: justify;&quot;&gt;&lt;span style=&quot;text-align: left;&quot;&gt;prazoExecucao:&amp;nbsp;&lt;/span&gt;&lt;span style=&quot;background-color: initial; text-align: left;&quot;&gt;INTEGER&lt;/span&gt;&lt;/div&gt;&lt;div style=&quot;text-align: justify;&quot;&gt;&lt;span style=&quot;text-align: left;&quot;&gt;fundamentacao&lt;/span&gt;&lt;span style=&quot;background-color: initial;&quot;&gt;:&amp;nbsp;&lt;/span&gt;&lt;span style=&quot;background-color: initial; text-align: left;&quot;&gt;TEXT&lt;/span&gt;&lt;/div&gt;&lt;div style=&quot;text-align: left;&quot;&gt;adjudicante:&amp;nbsp;&lt;span style=&quot;background-color: initial;&quot;&gt;INTEGER&lt;/span&gt;&lt;/div&gt;&lt;div style=&quot;text-align: left;&quot;&gt;idProcedimento&lt;span style=&quot;text-align: justify; background-color: initial;&quot;&gt;:&amp;nbsp;&lt;/span&gt;&lt;span style=&quot;background-color: initial;&quot;&gt;INTEGER&lt;/span&gt;&lt;/div&gt;" style="whiteSpace=wrap;html=1;align=left;" parent="24jAjjag3Yym39tfX2p5-30" vertex="1">
          <mxGeometry x="40" y="50" width="230" height="140" as="geometry" />
        </mxCell>
        <mxCell id="dAuswY9n_uoiKKatBOaa-13" value="&lt;div style=&quot;text-align: left; line-height: 120%;&quot;&gt;&lt;br&gt;&lt;/div&gt;&lt;div style=&quot;text-align: left; line-height: 120%;&quot;&gt;&lt;br&gt;&lt;/div&gt;&lt;div style=&quot;text-align: left; line-height: 120%;&quot;&gt;&lt;br&gt;&lt;/div&gt;&lt;div style=&quot;text-align: left; line-height: 120%;&quot;&gt;&lt;br&gt;&lt;/div&gt;&lt;div style=&quot;text-align: left; line-height: 120%;&quot;&gt;&lt;br&gt;&lt;/div&gt;&lt;div style=&quot;text-align: left; line-height: 120%;&quot;&gt;&lt;br&gt;&lt;/div&gt;&lt;div style=&quot;text-align: left; line-height: 120%;&quot;&gt;&lt;br&gt;&lt;/div&gt;&lt;div style=&quot;text-align: left; line-height: 120%;&quot;&gt;FK&lt;/div&gt;&lt;div style=&quot;text-align: left; line-height: 120%;&quot;&gt;&lt;span style=&quot;background-color: initial;&quot;&gt;FK&lt;/span&gt;&lt;/div&gt;" style="rounded=0;whiteSpace=wrap;html=1;" parent="24jAjjag3Yym39tfX2p5-30" vertex="1">
          <mxGeometry y="50" width="40" height="140" as="geometry" />
        </mxCell>
        <mxCell id="24jAjjag3Yym39tfX2p5-79" value="&lt;font color=&quot;#000000&quot;&gt;Modelo Relacional&lt;br&gt;&lt;/font&gt;&lt;div style=&quot;font-size: 18px;&quot;&gt;&lt;font color=&quot;#000000&quot;&gt;Contratos públicos&lt;/font&gt;&lt;/div&gt;" style="text;html=1;align=center;verticalAlign=middle;resizable=0;points=[];autosize=1;strokeColor=#6c8ebf;fillColor=#dae8fc;fontStyle=1;fontSize=18;" parent="1" vertex="1">
          <mxGeometry x="-1090" y="-970" width="190" height="60" as="geometry" />
        </mxCell>
        <mxCell id="dAuswY9n_uoiKKatBOaa-14" value="TiposContratos" style="swimlane;whiteSpace=wrap;html=1;fillColor=#f5f5f5;fontColor=#333333;strokeColor=#666666;" parent="1" vertex="1">
          <mxGeometry x="-1460" y="-866" width="244" height="80" as="geometry">
            <mxRectangle x="290" y="50" width="90" height="30" as="alternateBounds" />
          </mxGeometry>
        </mxCell>
        <mxCell id="dAuswY9n_uoiKKatBOaa-15" value="&lt;span style=&quot;text-align: justify;&quot;&gt;idTipoContrato:&amp;nbsp;&lt;/span&gt;INTEGER" style="whiteSpace=wrap;html=1;align=left;" parent="dAuswY9n_uoiKKatBOaa-14" vertex="1">
          <mxGeometry x="40" y="23" width="203" height="27" as="geometry" />
        </mxCell>
        <mxCell id="dAuswY9n_uoiKKatBOaa-16" value="&lt;div style=&quot;text-align: left;&quot;&gt;&lt;span style=&quot;background-color: initial;&quot;&gt;PK&lt;/span&gt;&lt;/div&gt;" style="rounded=0;whiteSpace=wrap;html=1;" parent="dAuswY9n_uoiKKatBOaa-14" vertex="1">
          <mxGeometry y="23" width="40" height="27" as="geometry" />
        </mxCell>
        <mxCell id="dAuswY9n_uoiKKatBOaa-17" value="&lt;div style=&quot;text-align: justify;&quot;&gt;&lt;span style=&quot;text-align: left;&quot;&gt;tipo:&amp;nbsp;&lt;/span&gt;&lt;span style=&quot;background-color: initial; text-align: left;&quot;&gt;TEXT&lt;/span&gt;&lt;/div&gt;" style="whiteSpace=wrap;html=1;align=left;" parent="dAuswY9n_uoiKKatBOaa-14" vertex="1">
          <mxGeometry x="40" y="50" width="203" height="30" as="geometry" />
        </mxCell>
        <mxCell id="dAuswY9n_uoiKKatBOaa-18" value="&lt;div style=&quot;text-align: left; line-height: 120%;&quot;&gt;&lt;br&gt;&lt;/div&gt;" style="rounded=0;whiteSpace=wrap;html=1;" parent="dAuswY9n_uoiKKatBOaa-14" vertex="1">
          <mxGeometry y="50" width="40" height="30" as="geometry" />
        </mxCell>
        <mxCell id="dAuswY9n_uoiKKatBOaa-19" value="CPVs" style="swimlane;whiteSpace=wrap;html=1;fillColor=#f5f5f5;fontColor=#333333;strokeColor=#666666;" parent="1" vertex="1">
          <mxGeometry x="-1680" y="-718" width="244" height="80" as="geometry">
            <mxRectangle x="290" y="50" width="90" height="30" as="alternateBounds" />
          </mxGeometry>
        </mxCell>
        <mxCell id="dAuswY9n_uoiKKatBOaa-20" value="codigoCPV: TEXT" style="whiteSpace=wrap;html=1;align=left;" parent="dAuswY9n_uoiKKatBOaa-19" vertex="1">
          <mxGeometry x="40" y="23" width="203" height="27" as="geometry" />
        </mxCell>
        <mxCell id="dAuswY9n_uoiKKatBOaa-21" value="&lt;div style=&quot;text-align: left;&quot;&gt;&lt;span style=&quot;background-color: initial;&quot;&gt;PK&lt;/span&gt;&lt;/div&gt;" style="rounded=0;whiteSpace=wrap;html=1;" parent="dAuswY9n_uoiKKatBOaa-19" vertex="1">
          <mxGeometry y="23" width="40" height="27" as="geometry" />
        </mxCell>
        <mxCell id="dAuswY9n_uoiKKatBOaa-22" value="&lt;div style=&quot;text-align: justify;&quot;&gt;&lt;span style=&quot;text-align: left;&quot;&gt;descricao:&amp;nbsp;&lt;/span&gt;&lt;span style=&quot;background-color: initial; text-align: left;&quot;&gt;TEXT&lt;/span&gt;&lt;/div&gt;" style="whiteSpace=wrap;html=1;align=left;" parent="dAuswY9n_uoiKKatBOaa-19" vertex="1">
          <mxGeometry x="40" y="50" width="203" height="30" as="geometry" />
        </mxCell>
        <mxCell id="dAuswY9n_uoiKKatBOaa-23" value="&lt;div style=&quot;text-align: left; line-height: 120%;&quot;&gt;&lt;br&gt;&lt;/div&gt;" style="rounded=0;whiteSpace=wrap;html=1;" parent="dAuswY9n_uoiKKatBOaa-19" vertex="1">
          <mxGeometry y="50" width="40" height="30" as="geometry" />
        </mxCell>
        <mxCell id="dAuswY9n_uoiKKatBOaa-29" value="Entidades" style="swimlane;whiteSpace=wrap;html=1;fillColor=#f5f5f5;fontColor=#333333;strokeColor=#666666;" parent="1" vertex="1">
          <mxGeometry x="-997" y="-350" width="244" height="90" as="geometry">
            <mxRectangle x="290" y="50" width="90" height="30" as="alternateBounds" />
          </mxGeometry>
        </mxCell>
        <mxCell id="dAuswY9n_uoiKKatBOaa-30" value="idEntidade: INTEGER" style="whiteSpace=wrap;html=1;align=left;" parent="dAuswY9n_uoiKKatBOaa-29" vertex="1">
          <mxGeometry x="40" y="23" width="203" height="27" as="geometry" />
        </mxCell>
        <mxCell id="dAuswY9n_uoiKKatBOaa-31" value="&lt;div style=&quot;text-align: left;&quot;&gt;&lt;span style=&quot;background-color: initial;&quot;&gt;PK&lt;/span&gt;&lt;/div&gt;" style="rounded=0;whiteSpace=wrap;html=1;" parent="dAuswY9n_uoiKKatBOaa-29" vertex="1">
          <mxGeometry y="23" width="40" height="27" as="geometry" />
        </mxCell>
        <mxCell id="dAuswY9n_uoiKKatBOaa-32" value="&lt;div style=&quot;text-align: justify;&quot;&gt;&lt;span style=&quot;text-align: left;&quot;&gt;nif:&amp;nbsp;&lt;/span&gt;&lt;span style=&quot;background-color: initial; text-align: left;&quot;&gt;TEXT&lt;/span&gt;&lt;/div&gt;&lt;div style=&quot;text-align: justify;&quot;&gt;&lt;span style=&quot;text-align: left;&quot;&gt;designacao:&amp;nbsp;&lt;/span&gt;&lt;span style=&quot;background-color: initial; text-align: left;&quot;&gt;TEXT&lt;/span&gt;&lt;/div&gt;" style="whiteSpace=wrap;html=1;align=left;" parent="dAuswY9n_uoiKKatBOaa-29" vertex="1">
          <mxGeometry x="40" y="50" width="203" height="40" as="geometry" />
        </mxCell>
        <mxCell id="dAuswY9n_uoiKKatBOaa-33" value="&lt;div style=&quot;text-align: left; line-height: 120%;&quot;&gt;&lt;br&gt;&lt;/div&gt;" style="rounded=0;whiteSpace=wrap;html=1;" parent="dAuswY9n_uoiKKatBOaa-29" vertex="1">
          <mxGeometry y="50" width="40" height="40" as="geometry" />
        </mxCell>
        <mxCell id="dAuswY9n_uoiKKatBOaa-50" value="Municipios" style="swimlane;whiteSpace=wrap;html=1;fillColor=#f5f5f5;fontColor=#333333;strokeColor=#666666;" parent="1" vertex="1">
          <mxGeometry x="-641" y="-575" width="244" height="90" as="geometry">
            <mxRectangle x="290" y="50" width="90" height="30" as="alternateBounds" />
          </mxGeometry>
        </mxCell>
        <mxCell id="dAuswY9n_uoiKKatBOaa-51" value="idMunicipio: INTEGER" style="whiteSpace=wrap;html=1;align=left;" parent="dAuswY9n_uoiKKatBOaa-50" vertex="1">
          <mxGeometry x="40" y="23" width="203" height="27" as="geometry" />
        </mxCell>
        <mxCell id="dAuswY9n_uoiKKatBOaa-52" value="&lt;div style=&quot;text-align: left;&quot;&gt;&lt;span style=&quot;background-color: initial;&quot;&gt;PK&lt;/span&gt;&lt;/div&gt;" style="rounded=0;whiteSpace=wrap;html=1;" parent="dAuswY9n_uoiKKatBOaa-50" vertex="1">
          <mxGeometry y="23" width="39" height="27" as="geometry" />
        </mxCell>
        <mxCell id="dAuswY9n_uoiKKatBOaa-53" value="&lt;div style=&quot;text-align: justify;&quot;&gt;&lt;span style=&quot;text-align: left;&quot;&gt;nome:&amp;nbsp;&lt;/span&gt;&lt;span style=&quot;background-color: initial; text-align: left;&quot;&gt;TEXT&lt;/span&gt;&lt;/div&gt;&lt;div style=&quot;text-align: left;&quot;&gt;idDistrito:&amp;nbsp;&lt;span style=&quot;background-color: initial;&quot;&gt;INTEGER&lt;/span&gt;&lt;/div&gt;" style="whiteSpace=wrap;html=1;align=left;" parent="dAuswY9n_uoiKKatBOaa-50" vertex="1">
          <mxGeometry x="40" y="50" width="203" height="40" as="geometry" />
        </mxCell>
        <mxCell id="dAuswY9n_uoiKKatBOaa-54" value="&lt;div style=&quot;text-align: left; line-height: 120%;&quot;&gt;&lt;br&gt;&lt;/div&gt;&lt;div style=&quot;text-align: left; line-height: 120%;&quot;&gt;FK&lt;/div&gt;" style="rounded=0;whiteSpace=wrap;html=1;" parent="dAuswY9n_uoiKKatBOaa-50" vertex="1">
          <mxGeometry y="50" width="39" height="40" as="geometry" />
        </mxCell>
        <mxCell id="dAuswY9n_uoiKKatBOaa-65" value="TiposProcedimentos" style="swimlane;whiteSpace=wrap;html=1;fillColor=#f5f5f5;fontColor=#333333;strokeColor=#666666;" parent="1" vertex="1">
          <mxGeometry x="-861" y="-861" width="244" height="80" as="geometry">
            <mxRectangle x="290" y="50" width="90" height="30" as="alternateBounds" />
          </mxGeometry>
        </mxCell>
        <mxCell id="dAuswY9n_uoiKKatBOaa-66" value="idProcedimento: INTEGER" style="whiteSpace=wrap;html=1;align=left;" parent="dAuswY9n_uoiKKatBOaa-65" vertex="1">
          <mxGeometry x="40" y="23" width="203" height="27" as="geometry" />
        </mxCell>
        <mxCell id="dAuswY9n_uoiKKatBOaa-67" value="&lt;div style=&quot;text-align: left;&quot;&gt;&lt;span style=&quot;background-color: initial;&quot;&gt;PK&lt;/span&gt;&lt;/div&gt;" style="rounded=0;whiteSpace=wrap;html=1;" parent="dAuswY9n_uoiKKatBOaa-65" vertex="1">
          <mxGeometry y="23" width="40" height="27" as="geometry" />
        </mxCell>
        <mxCell id="dAuswY9n_uoiKKatBOaa-68" value="&lt;div style=&quot;text-align: justify;&quot;&gt;&lt;span style=&quot;text-align: left;&quot;&gt;tipo:&amp;nbsp;&lt;/span&gt;&lt;span style=&quot;background-color: initial; text-align: left;&quot;&gt;TEXT&lt;/span&gt;&lt;/div&gt;" style="whiteSpace=wrap;html=1;align=left;" parent="dAuswY9n_uoiKKatBOaa-65" vertex="1">
          <mxGeometry x="40" y="50" width="203" height="30" as="geometry" />
        </mxCell>
        <mxCell id="dAuswY9n_uoiKKatBOaa-69" value="&lt;div style=&quot;text-align: left; line-height: 120%;&quot;&gt;&lt;br&gt;&lt;/div&gt;" style="rounded=0;whiteSpace=wrap;html=1;" parent="dAuswY9n_uoiKKatBOaa-65" vertex="1">
          <mxGeometry y="50" width="40" height="30" as="geometry" />
        </mxCell>
        <mxCell id="dAuswY9n_uoiKKatBOaa-71" value="Paises" style="swimlane;whiteSpace=wrap;html=1;fillColor=#f5f5f5;fontColor=#333333;strokeColor=#666666;" parent="1" vertex="1">
          <mxGeometry x="-643" y="-323" width="244" height="80" as="geometry">
            <mxRectangle x="290" y="50" width="90" height="30" as="alternateBounds" />
          </mxGeometry>
        </mxCell>
        <mxCell id="dAuswY9n_uoiKKatBOaa-72" value="idPais: INTEGER" style="whiteSpace=wrap;html=1;align=left;" parent="dAuswY9n_uoiKKatBOaa-71" vertex="1">
          <mxGeometry x="40" y="23" width="203" height="27" as="geometry" />
        </mxCell>
        <mxCell id="dAuswY9n_uoiKKatBOaa-73" value="&lt;div style=&quot;text-align: left;&quot;&gt;&lt;span style=&quot;background-color: initial;&quot;&gt;PK&lt;/span&gt;&lt;/div&gt;" style="rounded=0;whiteSpace=wrap;html=1;" parent="dAuswY9n_uoiKKatBOaa-71" vertex="1">
          <mxGeometry y="23" width="39" height="27" as="geometry" />
        </mxCell>
        <mxCell id="dAuswY9n_uoiKKatBOaa-74" value="&lt;div style=&quot;text-align: justify;&quot;&gt;&lt;span style=&quot;text-align: left;&quot;&gt;nome:&amp;nbsp;&lt;/span&gt;&lt;span style=&quot;background-color: initial; text-align: left;&quot;&gt;TEXT&lt;/span&gt;&lt;/div&gt;" style="whiteSpace=wrap;html=1;align=left;" parent="dAuswY9n_uoiKKatBOaa-71" vertex="1">
          <mxGeometry x="40" y="50" width="203" height="30" as="geometry" />
        </mxCell>
        <mxCell id="dAuswY9n_uoiKKatBOaa-75" value="&lt;div style=&quot;text-align: left; line-height: 120%;&quot;&gt;&lt;br&gt;&lt;/div&gt;" style="rounded=0;whiteSpace=wrap;html=1;" parent="dAuswY9n_uoiKKatBOaa-71" vertex="1">
          <mxGeometry y="50" width="39" height="30" as="geometry" />
        </mxCell>
        <mxCell id="dAuswY9n_uoiKKatBOaa-98" style="edgeStyle=orthogonalEdgeStyle;rounded=0;orthogonalLoop=1;jettySize=auto;html=1;entryX=0.5;entryY=0;entryDx=0;entryDy=0;" parent="1" source="dAuswY9n_uoiKKatBOaa-77" target="dAuswY9n_uoiKKatBOaa-71" edge="1">
          <mxGeometry relative="1" as="geometry" />
        </mxCell>
        <mxCell id="dAuswY9n_uoiKKatBOaa-77" value="Distritos" style="swimlane;whiteSpace=wrap;html=1;fillColor=#f5f5f5;fontColor=#333333;strokeColor=#666666;" parent="1" vertex="1">
          <mxGeometry x="-643" y="-450" width="244" height="90" as="geometry">
            <mxRectangle x="290" y="50" width="90" height="30" as="alternateBounds" />
          </mxGeometry>
        </mxCell>
        <mxCell id="dAuswY9n_uoiKKatBOaa-78" value="idDistrito: INTEGER" style="whiteSpace=wrap;html=1;align=left;" parent="dAuswY9n_uoiKKatBOaa-77" vertex="1">
          <mxGeometry x="40" y="23" width="203" height="27" as="geometry" />
        </mxCell>
        <mxCell id="dAuswY9n_uoiKKatBOaa-79" value="&lt;div style=&quot;text-align: left;&quot;&gt;&lt;span style=&quot;background-color: initial;&quot;&gt;PK&lt;/span&gt;&lt;/div&gt;" style="rounded=0;whiteSpace=wrap;html=1;" parent="dAuswY9n_uoiKKatBOaa-77" vertex="1">
          <mxGeometry y="23" width="39" height="27" as="geometry" />
        </mxCell>
        <mxCell id="dAuswY9n_uoiKKatBOaa-80" value="&lt;div style=&quot;text-align: justify;&quot;&gt;&lt;span style=&quot;text-align: left;&quot;&gt;nome:&amp;nbsp;&lt;/span&gt;&lt;span style=&quot;background-color: initial; text-align: left;&quot;&gt;TEXT&lt;/span&gt;&lt;/div&gt;&lt;div style=&quot;text-align: justify;&quot;&gt;&lt;span style=&quot;text-align: left;&quot;&gt;idPais:&amp;nbsp;&lt;/span&gt;&lt;span style=&quot;background-color: initial; text-align: left;&quot;&gt;INTEGER&lt;/span&gt;&lt;/div&gt;" style="whiteSpace=wrap;html=1;align=left;" parent="dAuswY9n_uoiKKatBOaa-77" vertex="1">
          <mxGeometry x="40" y="50" width="203" height="40" as="geometry" />
        </mxCell>
        <mxCell id="dAuswY9n_uoiKKatBOaa-81" value="&lt;div style=&quot;text-align: left; line-height: 120%;&quot;&gt;&lt;br&gt;&lt;/div&gt;&lt;div style=&quot;text-align: left; line-height: 120%;&quot;&gt;FK&lt;/div&gt;" style="rounded=0;whiteSpace=wrap;html=1;" parent="dAuswY9n_uoiKKatBOaa-77" vertex="1">
          <mxGeometry y="50" width="39" height="40" as="geometry" />
        </mxCell>
        <mxCell id="dAuswY9n_uoiKKatBOaa-92" style="edgeStyle=orthogonalEdgeStyle;rounded=0;orthogonalLoop=1;jettySize=auto;html=1;exitX=0.5;exitY=1;exitDx=0;exitDy=0;entryX=0.52;entryY=-0.002;entryDx=0;entryDy=0;entryPerimeter=0;" parent="1" source="dAuswY9n_uoiKKatBOaa-50" target="dAuswY9n_uoiKKatBOaa-77" edge="1">
          <mxGeometry relative="1" as="geometry" />
        </mxCell>
        <mxCell id="dAuswY9n_uoiKKatBOaa-102" style="edgeStyle=orthogonalEdgeStyle;rounded=0;orthogonalLoop=1;jettySize=auto;html=1;exitX=0.75;exitY=0;exitDx=0;exitDy=0;entryX=0.128;entryY=1.009;entryDx=0;entryDy=0;entryPerimeter=0;" parent="1" source="24jAjjag3Yym39tfX2p5-30" target="dAuswY9n_uoiKKatBOaa-68" edge="1">
          <mxGeometry relative="1" as="geometry" />
        </mxCell>
        <mxCell id="dAuswY9n_uoiKKatBOaa-106" value="tiposDescricaoAcordoQuadro" style="swimlane;whiteSpace=wrap;html=1;fillColor=#f5f5f5;fontColor=#333333;strokeColor=#666666;" parent="1" vertex="1">
          <mxGeometry x="-1696" y="-603" width="260" height="90" as="geometry">
            <mxRectangle x="290" y="50" width="90" height="30" as="alternateBounds" />
          </mxGeometry>
        </mxCell>
        <mxCell id="dAuswY9n_uoiKKatBOaa-107" value="idDescricaoAcordoQuadro: INTEGER" style="whiteSpace=wrap;html=1;align=left;" parent="dAuswY9n_uoiKKatBOaa-106" vertex="1">
          <mxGeometry x="40" y="23" width="220" height="27" as="geometry" />
        </mxCell>
        <mxCell id="dAuswY9n_uoiKKatBOaa-108" value="&lt;div style=&quot;text-align: left;&quot;&gt;&lt;span style=&quot;background-color: initial;&quot;&gt;PK&lt;/span&gt;&lt;/div&gt;" style="rounded=0;whiteSpace=wrap;html=1;" parent="dAuswY9n_uoiKKatBOaa-106" vertex="1">
          <mxGeometry y="23" width="40" height="27" as="geometry" />
        </mxCell>
        <mxCell id="dAuswY9n_uoiKKatBOaa-109" value="&lt;div style=&quot;text-align: justify;&quot;&gt;&lt;span style=&quot;text-align: left;&quot;&gt;identificador:&lt;/span&gt;&lt;span style=&quot;background-color: initial; text-align: left;&quot;&gt;&amp;nbsp;&lt;/span&gt;&lt;span style=&quot;background-color: initial; text-align: left;&quot;&gt;TEXT&lt;/span&gt;&lt;/div&gt;&lt;div style=&quot;text-align: justify;&quot;&gt;&lt;span style=&quot;text-align: left;&quot;&gt;descricao: TEXT&lt;/span&gt;&lt;/div&gt;" style="whiteSpace=wrap;html=1;align=left;" parent="dAuswY9n_uoiKKatBOaa-106" vertex="1">
          <mxGeometry x="40" y="50" width="220" height="40" as="geometry" />
        </mxCell>
        <mxCell id="dAuswY9n_uoiKKatBOaa-110" value="&lt;div style=&quot;text-align: left; line-height: 120%;&quot;&gt;&lt;br&gt;&lt;/div&gt;" style="rounded=0;whiteSpace=wrap;html=1;" parent="dAuswY9n_uoiKKatBOaa-106" vertex="1">
          <mxGeometry y="50" width="40" height="40" as="geometry" />
        </mxCell>
        <mxCell id="01Oeq3N-594YPHe-8Gk3-46" style="edgeStyle=orthogonalEdgeStyle;rounded=0;orthogonalLoop=1;jettySize=auto;html=1;entryX=1;entryY=0.5;entryDx=0;entryDy=0;" edge="1" parent="1" source="dAuswY9n_uoiKKatBOaa-116" target="dAuswY9n_uoiKKatBOaa-106">
          <mxGeometry relative="1" as="geometry" />
        </mxCell>
        <mxCell id="dAuswY9n_uoiKKatBOaa-116" value="DescricaoAcordoQuadro" style="swimlane;whiteSpace=wrap;html=1;fillColor=#f5f5f5;fontColor=#333333;strokeColor=#666666;" parent="1" vertex="1">
          <mxGeometry x="-1350" y="-598" width="270" height="80" as="geometry">
            <mxRectangle x="290" y="50" width="90" height="30" as="alternateBounds" />
          </mxGeometry>
        </mxCell>
        <mxCell id="dAuswY9n_uoiKKatBOaa-117" value="&lt;div&gt;idContrato: INTEGER&lt;/div&gt;&lt;div&gt;idDescricaoAcordoQuadro: INTEGER&lt;/div&gt;" style="whiteSpace=wrap;html=1;align=left;" parent="dAuswY9n_uoiKKatBOaa-116" vertex="1">
          <mxGeometry x="50" y="23" width="220" height="37" as="geometry" />
        </mxCell>
        <mxCell id="dAuswY9n_uoiKKatBOaa-118" value="&lt;div style=&quot;text-align: left;&quot;&gt;&lt;div&gt;&lt;span style=&quot;background-color: initial;&quot;&gt;PK, FK&lt;/span&gt;&lt;/div&gt;&lt;div&gt;PK, FK&lt;/div&gt;&lt;/div&gt;" style="rounded=0;whiteSpace=wrap;html=1;" parent="dAuswY9n_uoiKKatBOaa-116" vertex="1">
          <mxGeometry y="23" width="50" height="37" as="geometry" />
        </mxCell>
        <mxCell id="dAuswY9n_uoiKKatBOaa-119" value="&lt;div style=&quot;text-align: justify;&quot;&gt;&lt;br&gt;&lt;/div&gt;" style="whiteSpace=wrap;html=1;align=left;" parent="dAuswY9n_uoiKKatBOaa-116" vertex="1">
          <mxGeometry x="50" y="60" width="220" height="20" as="geometry" />
        </mxCell>
        <mxCell id="dAuswY9n_uoiKKatBOaa-120" value="&lt;div style=&quot;text-align: left; line-height: 120%;&quot;&gt;&lt;br&gt;&lt;/div&gt;" style="rounded=0;whiteSpace=wrap;html=1;" parent="dAuswY9n_uoiKKatBOaa-116" vertex="1">
          <mxGeometry y="60" width="50" height="20" as="geometry" />
        </mxCell>
        <mxCell id="8" style="edgeStyle=none;html=1;exitX=0.5;exitY=1;exitDx=0;exitDy=0;entryX=0.5;entryY=0;entryDx=0;entryDy=0;" parent="1" source="2" target="dAuswY9n_uoiKKatBOaa-50" edge="1">
          <mxGeometry relative="1" as="geometry" />
        </mxCell>
        <mxCell id="2" value="LocaisDeExecucao" style="swimlane;whiteSpace=wrap;html=1;fillColor=#f5f5f5;fontColor=#333333;strokeColor=#666666;" parent="1" vertex="1">
          <mxGeometry x="-644" y="-713" width="250" height="90" as="geometry">
            <mxRectangle x="290" y="50" width="90" height="30" as="alternateBounds" />
          </mxGeometry>
        </mxCell>
        <mxCell id="3" value="idContrato: INTEGER&lt;br&gt;idMunicipio: INTEGER" style="whiteSpace=wrap;html=1;align=left;" parent="2" vertex="1">
          <mxGeometry x="50" y="23" width="199" height="37" as="geometry" />
        </mxCell>
        <mxCell id="4" value="&lt;div style=&quot;text-align: left;&quot;&gt;&lt;span style=&quot;background-color: initial;&quot;&gt;PK, FK&lt;/span&gt;&lt;/div&gt;&lt;div style=&quot;text-align: left;&quot;&gt;&lt;span style=&quot;background-color: initial;&quot;&gt;PK, FK&lt;/span&gt;&lt;/div&gt;" style="rounded=0;whiteSpace=wrap;html=1;" parent="2" vertex="1">
          <mxGeometry y="23" width="50" height="37" as="geometry" />
        </mxCell>
        <mxCell id="5" value="&lt;div style=&quot;text-align: justify;&quot;&gt;&lt;br&gt;&lt;/div&gt;" style="whiteSpace=wrap;html=1;align=left;" parent="2" vertex="1">
          <mxGeometry x="50" y="60" width="200" height="30" as="geometry" />
        </mxCell>
        <mxCell id="15" value="&lt;div style=&quot;text-align: justify;&quot;&gt;&lt;br&gt;&lt;/div&gt;" style="whiteSpace=wrap;html=1;align=left;" parent="2" vertex="1">
          <mxGeometry y="60" width="50" height="30" as="geometry" />
        </mxCell>
        <mxCell id="01Oeq3N-594YPHe-8Gk3-19" value="Adjudicatarios&amp;nbsp;" style="swimlane;whiteSpace=wrap;html=1;fillColor=#f5f5f5;fontColor=#333333;strokeColor=#666666;" vertex="1" parent="1">
          <mxGeometry x="-920" y="-500" width="240" height="90" as="geometry">
            <mxRectangle x="290" y="50" width="90" height="30" as="alternateBounds" />
          </mxGeometry>
        </mxCell>
        <mxCell id="01Oeq3N-594YPHe-8Gk3-20" value="idContrato: INTEGER&lt;div&gt;idAdjudicante: INTEGER&lt;/div&gt;" style="whiteSpace=wrap;html=1;align=left;" vertex="1" parent="01Oeq3N-594YPHe-8Gk3-19">
          <mxGeometry x="50" y="23" width="190" height="37" as="geometry" />
        </mxCell>
        <mxCell id="01Oeq3N-594YPHe-8Gk3-21" value="&lt;div style=&quot;text-align: left;&quot;&gt;&lt;span style=&quot;background-color: initial;&quot;&gt;PK, FK&lt;/span&gt;&lt;/div&gt;&lt;div style=&quot;text-align: left;&quot;&gt;PK, FK&lt;span style=&quot;background-color: initial;&quot;&gt;&lt;/span&gt;&lt;/div&gt;" style="rounded=0;whiteSpace=wrap;html=1;" vertex="1" parent="01Oeq3N-594YPHe-8Gk3-19">
          <mxGeometry y="23" width="50" height="37" as="geometry" />
        </mxCell>
        <mxCell id="01Oeq3N-594YPHe-8Gk3-22" value="&lt;div style=&quot;text-align: justify;&quot;&gt;&lt;br&gt;&lt;/div&gt;" style="whiteSpace=wrap;html=1;align=left;" vertex="1" parent="01Oeq3N-594YPHe-8Gk3-19">
          <mxGeometry x="50" y="60" width="190" height="30" as="geometry" />
        </mxCell>
        <mxCell id="01Oeq3N-594YPHe-8Gk3-23" value="&lt;div style=&quot;text-align: left; line-height: 120%;&quot;&gt;&lt;br&gt;&lt;/div&gt;" style="rounded=0;whiteSpace=wrap;html=1;" vertex="1" parent="01Oeq3N-594YPHe-8Gk3-19">
          <mxGeometry y="60" width="50" height="30" as="geometry" />
        </mxCell>
        <mxCell id="01Oeq3N-594YPHe-8Gk3-42" style="edgeStyle=orthogonalEdgeStyle;rounded=0;orthogonalLoop=1;jettySize=auto;html=1;entryX=1;entryY=0.5;entryDx=0;entryDy=0;" edge="1" parent="1" source="01Oeq3N-594YPHe-8Gk3-26" target="dAuswY9n_uoiKKatBOaa-14">
          <mxGeometry relative="1" as="geometry" />
        </mxCell>
        <mxCell id="01Oeq3N-594YPHe-8Gk3-43" style="edgeStyle=orthogonalEdgeStyle;rounded=0;orthogonalLoop=1;jettySize=auto;html=1;" edge="1" parent="1">
          <mxGeometry relative="1" as="geometry">
            <mxPoint x="-945" y="-730" as="targetPoint" />
            <mxPoint x="-945" y="-781" as="sourcePoint" />
          </mxGeometry>
        </mxCell>
        <mxCell id="01Oeq3N-594YPHe-8Gk3-26" value="ClassificacaoContratos" style="swimlane;whiteSpace=wrap;html=1;fillColor=#f5f5f5;fontColor=#333333;strokeColor=#666666;" vertex="1" parent="1">
          <mxGeometry x="-1150" y="-871" width="240" height="90" as="geometry">
            <mxRectangle x="290" y="50" width="90" height="30" as="alternateBounds" />
          </mxGeometry>
        </mxCell>
        <mxCell id="01Oeq3N-594YPHe-8Gk3-27" value="idContrato: INTEGER&lt;div&gt;idTipoContrato: INTEGER&lt;/div&gt;" style="whiteSpace=wrap;html=1;align=left;" vertex="1" parent="01Oeq3N-594YPHe-8Gk3-26">
          <mxGeometry x="50" y="23" width="190" height="37" as="geometry" />
        </mxCell>
        <mxCell id="01Oeq3N-594YPHe-8Gk3-28" value="&lt;div style=&quot;text-align: left;&quot;&gt;&lt;span style=&quot;background-color: initial;&quot;&gt;PK, FK&lt;/span&gt;&lt;/div&gt;&lt;div style=&quot;text-align: left;&quot;&gt;PK, FK&lt;span style=&quot;background-color: initial;&quot;&gt;&lt;/span&gt;&lt;/div&gt;" style="rounded=0;whiteSpace=wrap;html=1;" vertex="1" parent="01Oeq3N-594YPHe-8Gk3-26">
          <mxGeometry y="23" width="50" height="37" as="geometry" />
        </mxCell>
        <mxCell id="01Oeq3N-594YPHe-8Gk3-29" value="&lt;div style=&quot;text-align: justify;&quot;&gt;&lt;br&gt;&lt;/div&gt;" style="whiteSpace=wrap;html=1;align=left;" vertex="1" parent="01Oeq3N-594YPHe-8Gk3-26">
          <mxGeometry x="50" y="60" width="190" height="30" as="geometry" />
        </mxCell>
        <mxCell id="01Oeq3N-594YPHe-8Gk3-30" value="&lt;div style=&quot;text-align: left; line-height: 120%;&quot;&gt;&lt;br&gt;&lt;/div&gt;" style="rounded=0;whiteSpace=wrap;html=1;" vertex="1" parent="01Oeq3N-594YPHe-8Gk3-26">
          <mxGeometry y="60" width="50" height="30" as="geometry" />
        </mxCell>
        <mxCell id="01Oeq3N-594YPHe-8Gk3-44" style="edgeStyle=orthogonalEdgeStyle;rounded=0;orthogonalLoop=1;jettySize=auto;html=1;entryX=1;entryY=0.5;entryDx=0;entryDy=0;" edge="1" parent="1" source="01Oeq3N-594YPHe-8Gk3-33" target="dAuswY9n_uoiKKatBOaa-19">
          <mxGeometry relative="1" as="geometry" />
        </mxCell>
        <mxCell id="01Oeq3N-594YPHe-8Gk3-47" style="edgeStyle=orthogonalEdgeStyle;rounded=0;orthogonalLoop=1;jettySize=auto;html=1;entryX=-0.009;entryY=0.011;entryDx=0;entryDy=0;entryPerimeter=0;" edge="1" parent="1" source="01Oeq3N-594YPHe-8Gk3-33" target="dAuswY9n_uoiKKatBOaa-13">
          <mxGeometry relative="1" as="geometry">
            <mxPoint x="-1000" y="-670" as="targetPoint" />
          </mxGeometry>
        </mxCell>
        <mxCell id="01Oeq3N-594YPHe-8Gk3-33" value="CPVContratos" style="swimlane;whiteSpace=wrap;html=1;fillColor=#f5f5f5;fontColor=#333333;strokeColor=#666666;" vertex="1" parent="1">
          <mxGeometry x="-1320" y="-723" width="240" height="90" as="geometry">
            <mxRectangle x="290" y="50" width="90" height="30" as="alternateBounds" />
          </mxGeometry>
        </mxCell>
        <mxCell id="01Oeq3N-594YPHe-8Gk3-34" value="idContrato: INTEGER&lt;br&gt;&lt;div&gt;&lt;span style=&quot;background-color: initial;&quot;&gt;codigoCPV&lt;/span&gt;: INTEGER&lt;/div&gt;" style="whiteSpace=wrap;html=1;align=left;" vertex="1" parent="01Oeq3N-594YPHe-8Gk3-33">
          <mxGeometry x="50" y="23" width="190" height="37" as="geometry" />
        </mxCell>
        <mxCell id="01Oeq3N-594YPHe-8Gk3-35" value="&lt;div style=&quot;text-align: left;&quot;&gt;&lt;span style=&quot;background-color: initial;&quot;&gt;PK, FK&lt;/span&gt;&lt;/div&gt;&lt;div style=&quot;text-align: left;&quot;&gt;PK, FK&lt;span style=&quot;background-color: initial;&quot;&gt;&lt;/span&gt;&lt;/div&gt;" style="rounded=0;whiteSpace=wrap;html=1;" vertex="1" parent="01Oeq3N-594YPHe-8Gk3-33">
          <mxGeometry y="23" width="50" height="37" as="geometry" />
        </mxCell>
        <mxCell id="01Oeq3N-594YPHe-8Gk3-36" value="&lt;div style=&quot;text-align: justify;&quot;&gt;&lt;br&gt;&lt;/div&gt;" style="whiteSpace=wrap;html=1;align=left;" vertex="1" parent="01Oeq3N-594YPHe-8Gk3-33">
          <mxGeometry x="50" y="60" width="190" height="30" as="geometry" />
        </mxCell>
        <mxCell id="01Oeq3N-594YPHe-8Gk3-37" value="&lt;div style=&quot;text-align: left; line-height: 120%;&quot;&gt;&lt;br&gt;&lt;/div&gt;" style="rounded=0;whiteSpace=wrap;html=1;" vertex="1" parent="01Oeq3N-594YPHe-8Gk3-33">
          <mxGeometry y="60" width="50" height="30" as="geometry" />
        </mxCell>
        <mxCell id="01Oeq3N-594YPHe-8Gk3-38" style="edgeStyle=orthogonalEdgeStyle;rounded=0;orthogonalLoop=1;jettySize=auto;html=1;exitX=0;exitY=0.5;exitDx=0;exitDy=0;entryX=0.996;entryY=0.043;entryDx=0;entryDy=0;entryPerimeter=0;" edge="1" parent="1" source="4" target="dAuswY9n_uoiKKatBOaa-12">
          <mxGeometry relative="1" as="geometry">
            <mxPoint x="-750" y="-740" as="targetPoint" />
            <Array as="points">
              <mxPoint x="-644" y="-673" />
            </Array>
          </mxGeometry>
        </mxCell>
        <mxCell id="01Oeq3N-594YPHe-8Gk3-39" style="edgeStyle=orthogonalEdgeStyle;rounded=0;orthogonalLoop=1;jettySize=auto;html=1;" edge="1" parent="1" source="01Oeq3N-594YPHe-8Gk3-19">
          <mxGeometry relative="1" as="geometry">
            <mxPoint x="-800" y="-539" as="targetPoint" />
            <Array as="points">
              <mxPoint x="-800" y="-539" />
            </Array>
          </mxGeometry>
        </mxCell>
        <mxCell id="01Oeq3N-594YPHe-8Gk3-40" style="edgeStyle=orthogonalEdgeStyle;rounded=0;orthogonalLoop=1;jettySize=auto;html=1;exitX=0.5;exitY=1;exitDx=0;exitDy=0;entryX=0.81;entryY=-0.007;entryDx=0;entryDy=0;entryPerimeter=0;" edge="1" parent="1" source="01Oeq3N-594YPHe-8Gk3-19" target="dAuswY9n_uoiKKatBOaa-29">
          <mxGeometry relative="1" as="geometry" />
        </mxCell>
        <mxCell id="01Oeq3N-594YPHe-8Gk3-48" style="edgeStyle=orthogonalEdgeStyle;rounded=0;orthogonalLoop=1;jettySize=auto;html=1;entryX=-0.055;entryY=0.863;entryDx=0;entryDy=0;entryPerimeter=0;" edge="1" parent="1" source="dAuswY9n_uoiKKatBOaa-116" target="dAuswY9n_uoiKKatBOaa-13">
          <mxGeometry relative="1" as="geometry" />
        </mxCell>
      </root>
    </mxGraphModel>
  </diagram>
</mxfile>
